# xmcd
#
# Track frame offsets:
#	150
#	13818
#	26114
#	40126
#	57656
#	72564
#	88236
#	108788
#
# Disc length: 1617 seconds
#
# Revision: 1
# Processed by: cddbd v1.5.1PL0 Copyright (c) Steve Scherf et al.
# Submitted via: audiograbber 1.83.01
#
DISCID=6f064f08
DTITLE=Various Artist - Ultimate Karaoke Country Favorites 2
DYEAR=1900
DGENRE=Karaoke
TTITLE0=Kiss This
TTITLE1=Little Bitty
TTITLE2=There's Your Trouble
TTITLE3=You Had Me From Hello
TTITLE4=All My Ex's Live in Texas
TTITLE5=I'll Never Forgive My Heart
TTITLE6=Put Your Hand In Mine
TTITLE7=When Did You Stop Loving Me
EXTD=
EXTT0=
EXTT1=
EXTT2=
EXTT3=
EXTT4=
EXTT5=
EXTT6=
EXTT7=
PLAYORDER=
